# xmcd
#
# Track frame offsets:
#       150
#       10753
#       23509
#       37663
#       48970
#       59221
#       69605
#       81766
#       93431
#       107033
#       117666
#       126848
#       139749
#       158347
#       169353
#       182002
#       192099
#
# Disc length: 2708 seconds
#
# Revision: 1
# Processed by: cddbd v1.5.1PL0 Copyright (c) Steve Scherf et al.
# Submitted via: MusiCat 1.1
#
DISCID=dd0a9211
DTITLE=The Back Porch Swing Band - Back Porch Swing Band #2
DYEAR=1900
DGENRE=
TTITLE0=I Want to be a Cowboy's Sweetheart
TTITLE1=I'll Keep on Loving You
TTITLE2=In the Jailhouse Now
TTITLE3=Minor Swing
TTITLE4=Try Again
TTITLE5=Bring it on Down to My House, Honey
TTITLE6=Sooner or Later
TTITLE7=A Fool Such as I
TTITLE8=San Antonio Rose
TTITLE9=Pan Handle Rag
TTITLE10=Exactly like You
TTITLE11=Someday You'll want me to Want You
TTITLE12=Night Rider's Lament
TTITLE13=Roly Poly
TTITLE14=Sioux City Sue
TTITLE15=Maiden's Prayer
TTITLE16=End of the Line
EXTD=\n\n
EXTT0=
EXTT1=
EXTT2=
EXTT3=
EXTT4=
EXTT5=
EXTT6=
EXTT7=
EXTT8=
EXTT9=
EXTT10=
EXTT11=
EXTT12=
EXTT13=
EXTT14=
EXTT15=
EXTT16=
PLAYORDER=
